<?xml version="1.0" encoding="utf-8"?>
<!-- Generator: Adobe Illustrator 21.0.0, SVG Export Plug-In . SVG Version: 6.00 Build 0)  -->
<svg version="1.1" id="Layer_1" xmlns="http://www.w3.org/2000/svg" xmlns:xlink="http://www.w3.org/1999/xlink" x="0px" y="0px"
	 viewBox="0 0 37.1 11.3" style="enable-background:new 0 0 37.1 11.3;" xml:space="preserve">
<style type="text/css">
	.st0{fill:none;stroke:#12F70A;stroke-width:0.4;}
</style>
<g>
	<path class="st0" d="M7.5,3c0.4-1.1,1-2.4,0-2.8v0h2.3L5.7,11c-1.1-0.7-1.5-0.8-1.9-2.1L1.4,2.5C1.1,1.7,0.9,0.8,0.2,0.2v0h2.3
		l0,0.2c0,0.3,0.3,1.1,0.4,1.5l2.5,6.8L7.5,3z"/>
	<path class="st0" d="M9.4,7c0-2.4,1.9-3.9,4.2-3.9c1,0,1.9,0.3,2.6,0.9c0.8,0.7,1.3,1.7,1.3,2.8c0,2.3-1.9,3.9-4.1,3.9
		C11.2,10.8,9.4,9.2,9.4,7z M15.9,7.2c0-1.5-0.8-3-2.5-3c-1.5,0-2.4,1.1-2.4,2.6c0,1.4,0.9,3,2.5,3C14.9,9.7,15.9,8.6,15.9,7.2z"/>
	<path class="st0" d="M19.3,3.3c0.4,0,0.8,0,1-0.3h0v5.7c0,0.7-0.1,1.3,0.6,1.7v0h-2.6v0c0.7-0.4,0.6-1,0.6-1.7V5
		c0-0.7,0.1-1.3-0.6-1.7v0H19.3z M19.6,2.4c-0.6,0-1-0.5-1-1c0-0.6,0.5-0.9,1-0.9c0.5,0,0.9,0.5,0.9,1S20.2,2.4,19.6,2.4z"/>
	<path class="st0" d="M28.1,4.9L28.1,4.9c-0.5-0.5-1.3-0.8-2-0.8c-1.5,0-2.6,1.1-2.6,2.6c0,1.8,1.5,3,3.3,3c0.8,0,1.7-0.3,2.3-0.8h0
		l-0.8,1.5c-0.7,0.3-1.4,0.3-2.1,0.3c-2.4,0-4.3-1.6-4.3-3.6c0-2.7,2.1-4,4.5-4c0.6,0,1.1,0.1,1.7,0.2V4.9z"/>
	<path class="st0" d="M30.9,6.7c0,1.9,1.4,3,3.1,3c0.9,0,1.9-0.3,2.6-0.8h0l-0.8,1.5c-0.7,0.3-1.4,0.4-2.2,0.4
		c-2.7,0-4.5-1.7-4.5-3.9s1.6-3.8,3.9-3.8c2.1,0,3.6,1.5,3.5,3.6H30.9z M35.1,5.8c-0.2-1.1-0.9-1.6-2-1.6c-1.1,0-1.8,0.6-2,1.6H35.1
		z"/>
</g>
</svg>
