<?xml version="1.0" encoding="utf-8"?>
<!-- Generator: Adobe Illustrator 21.0.0, SVG Export Plug-In . SVG Version: 6.00 Build 0)  -->
<svg version="1.1" id="Layer_1" xmlns="http://www.w3.org/2000/svg" xmlns:xlink="http://www.w3.org/1999/xlink" x="0px" y="0px"
	 viewBox="0 0 28.7 13.4" style="enable-background:new 0 0 28.7 13.4;" xml:space="preserve">
<style type="text/css">
	.st0{fill:none;stroke:#12F70A;stroke-width:0.4;}
</style>
<g>
	<path class="st0" d="M6,4.4c0.3-0.9,0.7-1.8,0-2.1v0h1.8l-3.2,8.3C3.8,10,3.5,9.9,3.1,8.9L1.3,4C1.1,3.4,0.9,2.7,0.4,2.3v0h1.8
		l0,0.1c0,0.3,0.2,0.9,0.3,1.1l1.9,5.2L6,4.4z"/>
	<path class="st0" d="M7.4,7.4c0-1.8,1.5-3,3.2-3c0.8,0,1.4,0.2,2,0.7c0.6,0.5,1,1.3,1,2.1c0,1.7-1.4,3-3.1,3
		C8.8,10.3,7.4,9.2,7.4,7.4z M12.4,7.6c0-1.2-0.6-2.3-1.9-2.3c-1.1,0-1.8,0.9-1.8,2c0,1.1,0.7,2.3,1.9,2.3
		C11.6,9.5,12.4,8.7,12.4,7.6z"/>
	<path class="st0" d="M15,4.6c0.3,0,0.6,0,0.8-0.2h0v4.4c0,0.6-0.1,1,0.5,1.3v0h-2v0c0.5-0.3,0.5-0.7,0.5-1.3V6c0-0.6,0.1-1-0.5-1.3
		v0H15z M15.2,3.9c-0.4,0-0.8-0.3-0.8-0.8c0-0.4,0.4-0.7,0.8-0.7c0.4,0,0.7,0.3,0.7,0.7S15.6,3.9,15.2,3.9z"/>
	<path class="st0" d="M21.7,5.9L21.7,5.9c-0.4-0.4-1-0.6-1.5-0.6c-1.2,0-2,0.8-2,2c0,1.4,1.2,2.3,2.5,2.3c0.6,0,1.3-0.2,1.8-0.6h0
		l-0.6,1.1c-0.5,0.2-1.1,0.2-1.6,0.2c-1.8,0-3.3-1.2-3.3-2.8c0-2.1,1.6-3.1,3.4-3.1c0.4,0,0.9,0,1.3,0.1V5.9z"/>
	<path class="st0" d="M23.8,7.2c0,1.5,1,2.3,2.4,2.3c0.7,0,1.4-0.2,2-0.6h0L27.6,10c-0.5,0.2-1.1,0.3-1.7,0.3c-2,0-3.4-1.3-3.4-3
		s1.2-2.9,3-2.9c1.6,0,2.7,1.2,2.7,2.7H23.8z M27,6.5c-0.1-0.8-0.7-1.2-1.5-1.2c-0.8,0-1.4,0.5-1.5,1.2H27z"/>
</g>
</svg>
