<?xml version="1.0" encoding="utf-8"?>
<!-- Generator: Adobe Illustrator 21.0.0, SVG Export Plug-In . SVG Version: 6.00 Build 0)  -->
<svg version="1.1" id="Layer_1" xmlns="http://www.w3.org/2000/svg" xmlns:xlink="http://www.w3.org/1999/xlink" x="0px" y="0px"
	 viewBox="0 0 9.5 14.8" style="enable-background:new 0 0 9.5 14.8;" xml:space="preserve">
<style type="text/css">
	.st0{fill:#12F70A;}
</style>
<g>
	<g>
		<path class="st0" d="M0,6.8l0,0.4c0,2.2,1.5,4,3.6,4.5c0,0,0.1,0,0.1,0C3.9,11.9,4,12,4.1,12.2v1.9c0,0.4,0.3,0.7,0.7,0.7h0
			c0.4,0,0.7-0.3,0.7-0.7v-1.9c0.1-0.2,0.2-0.4,0.4-0.4c0,0,0.1,0,0.1,0C8,11.2,9.5,9.4,9.5,7.3V6.8c0-0.3-0.3-0.6-0.6-0.6
			S8.2,6.5,8.2,6.8v0.4c0,0.9-0.4,1.8-1,2.4c-0.6,0.6-1.5,1-2.5,1s-1.8-0.4-2.5-1s-1-1.5-1-2.4V6.8c0-0.3-0.3-0.6-0.6-0.6
			C0.3,6.2,0,6.5,0,6.8z"/>
		<path class="st0" d="M2.2,2.5v4.8c0,1.4,1.1,2.5,2.6,2.5s2.6-1.1,2.6-2.5V2.5C7.3,1.1,6.2,0,4.8,0S2.2,1.1,2.2,2.5z"/>
	</g>
</g>
</svg>
